<?xml version="1.0" encoding="utf-8"?>
<!-- Generator: Adobe Illustrator 16.2.0, SVG Export Plug-In . SVG Version: 6.00 Build 0)  -->
<!DOCTYPE svg PUBLIC "-//W3C//DTD SVG 1.1//EN" "http://www.w3.org/Graphics/SVG/1.1/DTD/svg11.dtd">
<svg version="1.1" xmlns="http://www.w3.org/2000/svg" xmlns:xlink="http://www.w3.org/1999/xlink" x="0px" y="0px" width="500px"
	 height="500px" viewBox="0 0 500 500" enable-background="new 0 0 500 500" xml:space="preserve">
<g id="BG">
</g>
<g id="レイヤー_2">
</g>
<g id="レイヤー_1のコピー">
	<g>
		<g>
			<g>
				<path fill="#00A7EA" d="M441.748,15c11.488,0,22.332,4.517,30.534,12.719C480.483,35.92,485,46.764,485,58.252v383.496
					c0,11.488-4.517,22.332-12.718,30.533C464.08,480.483,453.236,485,441.748,485H58.252c-11.488,0-22.332-4.517-30.533-12.719
					C19.517,464.08,15,453.236,15,441.748V58.252c0-11.488,4.517-22.332,12.719-30.533C35.92,19.517,46.764,15,58.252,15H441.748
					 M441.748,0H58.252C26.214,0,0,26.214,0,58.252v383.496C0,473.786,26.214,500,58.252,500h383.496
					C473.787,500,500,473.786,500,441.748V58.252C500,26.214,473.787,0,441.748,0L441.748,0z"/>
			</g>
		</g>
		<g>
			<g>
				<g>
					<path fill="#00A7EA" d="M397.133,333.687c17.116-9.49,28.702-27.686,28.702-48.663c0-29.919-23.535-54.431-53.125-55.847
						c-0.879-0.044-1.768-0.058-2.673-0.058h-77.361L90.252,438.215l279.785-0.005c30.824,0,55.798-24.831,55.798-55.673
						C425.835,361.559,414.249,343.257,397.133,333.687z M339.995,385.308H215.234l33.984-35.072l90.776-0.014
						c9.694,0,17.533,7.857,17.533,17.543C357.528,377.455,349.689,385.308,339.995,385.308z M339.995,317.072h-62.092
						l33.993-35.059h28.099c9.694,0,17.533,7.839,17.533,17.524C357.528,309.233,349.689,317.072,339.995,317.072z"/>
				</g>
				<path fill="#00A7EA" d="M209.126,252.85c-1.216,0.293-3.524,0.657-6.587,0.28c-34.064-4.382-60.387-33.479-60.387-68.737
					c0-38.285,31.019-69.313,69.309-69.313c26.794,0,48.687,15.194,59.438,37.451l0,0h77.53
					C334.597,90.372,281.144,44.069,214.586,44.069c-77.548,0-140.421,62.851-140.421,140.421
					c0,73.052,55.798,133.083,127.096,139.795l70.161-72.496l78.32-81.063h-164.23v23.029l49.769,32.013L209.126,252.85z"/>
			</g>
		</g>
	</g>
</g>
</svg>
