<?xml version="1.0" encoding="utf-8"?>
<!-- Generator: Adobe Illustrator 16.2.0, SVG Export Plug-In . SVG Version: 6.00 Build 0)  -->
<!DOCTYPE svg PUBLIC "-//W3C//DTD SVG 1.1//EN" "http://www.w3.org/Graphics/SVG/1.1/DTD/svg11.dtd">
<svg version="1.1" xmlns="http://www.w3.org/2000/svg" xmlns:xlink="http://www.w3.org/1999/xlink" x="0px" y="0px" width="1600px"
	 height="460px" viewBox="0 0 1600 460" enable-background="new 0 0 1600 460" xml:space="preserve">
<g id="BG">
</g>
<g id="レイヤー_2">
	<g>
		<g>
			<path d="M299.83,176.408H198.969v-35.216c0-22.197-0.959-36.092-2.875-41.687c-1.918-5.589-6.467-8.383-13.656-8.383
				c-6.229,0-10.462,2.395-12.696,7.186c-2.24,4.793-3.354,17.094-3.354,36.896v186.147c0,17.41,1.114,28.871,3.354,34.379
				c2.234,5.512,6.709,8.267,13.415,8.267c7.346,0,12.34-3.116,14.973-9.345c2.637-6.227,3.953-18.363,3.953-36.414V272.24h-20.361
				v-58.936H299.83v208.191h-63.384l-9.327-27.791c-6.873,11.976-15.545,20.962-26.014,26.951
				c-10.469,5.988-22.814,8.985-37.039,8.985c-16.945,0-32.813-4.117-47.595-12.339c-14.786-8.224-26.011-18.407-33.685-30.547
				c-7.675-12.134-12.471-24.873-14.387-38.21c-1.916-13.334-2.875-33.339-2.875-60.014V173.295c0-37.051,1.996-63.968,5.991-80.737
				c3.989-16.77,15.45-32.139,34.379-46.117c18.927-13.975,43.399-20.964,73.429-20.964c29.545,0,54.06,6.071,73.549,18.208
				c19.484,12.14,32.181,26.556,38.092,43.242c5.907,16.692,8.865,40.93,8.865,72.711V176.408z"/>
			<path d="M490.187,253.698h-69.813v-14.041c0-11.958-0.683-19.528-2.046-22.716c-1.365-3.185-4.779-4.778-10.236-4.778
				c-4.425,0-7.737,1.463-9.947,4.388c-2.211,2.925-3.316,7.311-3.316,13.162c0,7.931,0.555,13.749,1.66,17.455
				c1.102,3.703,4.418,7.77,9.943,12.188c5.523,4.421,16.868,10.856,34.027,19.305c22.88,11.181,37.897,21.712,45.047,31.591
				c7.147,9.882,10.726,24.247,10.726,43.096c0,21.06-2.729,36.953-8.189,47.678c-5.461,10.724-14.595,18.981-27.399,24.767
				c-12.805,5.779-28.244,8.675-46.313,8.675c-20.02,0-37.146-3.116-51.385-9.36c-14.234-6.238-24.018-14.688-29.347-25.348
				c-5.333-10.659-7.996-26.779-7.996-48.363v-12.479h69.813v16.379c0,13.912,0.876,22.948,2.63,27.107
				c1.758,4.162,5.234,6.241,10.434,6.241c5.589,0,9.488-1.397,11.702-4.195c2.208-2.794,3.315-8.678,3.315-17.648
				c0-12.348-1.433-20.085-4.29-23.204c-2.993-3.119-18.268-12.349-45.827-27.691c-23.143-12.998-37.245-24.795-42.316-35.392
				c-5.07-10.594-7.605-23.171-7.605-37.733c0-20.672,2.732-35.913,8.189-45.729c5.461-9.813,14.724-17.386,27.79-22.719
				c13.066-5.327,28.241-7.993,45.532-7.993c17.16,0,31.752,2.178,43.778,6.53c12.024,4.358,21.257,10.111,27.69,17.258
				c6.436,7.153,10.335,13.781,11.703,19.892c1.363,6.113,2.046,15.667,2.046,28.665V253.698z"/>
			<path d="M519.465,33.622h100.623c31.781,0,55.858,2.476,72.232,7.424c16.367,4.948,29.585,14.961,39.648,30.044
				c10.061,15.086,15.092,39.384,15.092,72.902c0,22.665-3.557,38.466-10.658,47.407c-7.111,8.938-21.125,15.798-42.048,20.589
				c23.317,5.273,39.131,14.022,47.437,26.246c8.303,12.226,12.459,30.965,12.459,56.216v35.955c0,26.21-2.998,45.625-8.985,58.248
				c-5.988,12.628-15.536,21.256-28.63,25.89c-13.099,4.635-39.929,6.953-80.495,6.953H519.465V33.622z M620.326,99.985v86.249
				c4.314-0.158,7.666-0.242,10.063-0.242c9.899,0,16.206-2.434,18.927-7.308c2.714-4.868,4.072-18.804,4.072-41.803
				c0-12.137-1.12-20.643-3.354-25.516c-2.24-4.871-5.151-7.942-8.743-9.224C637.695,100.864,630.705,100.146,620.326,99.985z
				 M620.326,246.605v108.526c14.214-0.479,23.275-2.714,27.19-6.706s5.872-13.814,5.872-29.469V282.78
				c0-16.608-1.761-26.672-5.27-30.187C644.604,249.083,635.338,247.084,620.326,246.605z"/>
			<path d="M1008.639,260.741c0,38.97-0.92,66.563-2.755,82.772c-1.839,16.212-7.588,31.024-17.249,44.439
				c-9.664,13.418-22.722,23.718-39.17,30.904c-16.453,7.192-35.618,10.785-57.496,10.785c-20.766,0-39.411-3.396-55.942-10.183
				c-16.531-6.787-29.827-16.968-39.89-30.546c-10.061-13.573-16.053-28.35-17.968-44.32c-1.915-15.971-2.875-43.921-2.875-83.851
				v-66.363c0-38.97,0.918-66.562,2.756-82.774c1.835-16.207,7.585-31.025,17.249-44.439c9.661-13.415,22.719-23.717,39.17-30.906
				c16.447-7.188,35.615-10.781,57.5-10.781c20.758,0,39.407,3.396,55.938,10.183c16.53,6.79,29.827,16.972,39.89,30.545
				c10.061,13.579,16.053,28.352,17.968,44.323s2.874,43.924,2.874,83.85V260.741z M907.778,133.285
				c0-18.044-0.998-29.585-2.994-34.617c-1.999-5.032-6.11-7.546-12.339-7.546c-5.271,0-9.305,2.035-12.099,6.107
				c-2.794,4.073-4.191,16.093-4.191,36.056v181.119c0,22.519,0.917,36.417,2.755,41.687c1.836,5.271,6.107,7.907,12.816,7.907
				c6.867,0,11.262-3.033,13.177-9.104c1.919-6.068,2.875-20.521,2.875-43.364V133.285z"/>
			<path d="M1263.863,260.741c0,38.97-0.924,66.563-2.759,82.772c-1.835,16.212-7.585,31.024-17.249,44.439
				c-9.664,13.418-22.719,23.718-39.17,30.904c-16.45,7.192-35.617,10.785-57.496,10.785c-20.765,0-39.414-3.396-55.942-10.183
				c-16.528-6.787-29.827-16.968-39.89-30.546c-10.061-13.573-16.053-28.35-17.968-44.32c-1.915-15.971-2.874-43.921-2.874-83.851
				v-66.363c0-38.97,0.917-66.562,2.755-82.774c1.835-16.207,7.585-31.025,17.249-44.439c9.662-13.415,22.716-23.717,39.173-30.906
				c16.444-7.188,35.612-10.781,57.497-10.781c20.758,0,39.407,3.396,55.941,10.183c16.528,6.79,29.827,16.972,39.885,30.545
				c10.063,13.579,16.051,28.352,17.97,44.323s2.878,43.924,2.878,83.85V260.741z M1163.002,133.285c0-18.044-1-29.585-2.996-34.617
				c-2.002-5.032-6.107-7.546-12.34-7.546c-5.268,0-9.307,2.035-12.096,6.107c-2.801,4.073-4.194,16.093-4.194,36.056v181.119
				c0,22.519,0.917,36.417,2.753,41.687c1.835,5.271,6.113,7.907,12.822,7.907c6.863,0,11.255-3.033,13.174-9.104
				c1.918-6.068,2.877-20.521,2.877-43.364V133.285z"/>
			<path d="M1528.146,33.622l-57.854,175.13l63.366,212.743h-104.216l-40.844-166.266v166.266h-100.86V33.622h100.86v150.692
				l44.919-150.692H1528.146z"/>
		</g>
		<path d="M381.961,85.572c0,41.466-56.239,59.1-56.239,59.1V33.622h56.239C381.961,33.622,381.961,74.132,381.961,85.572z"/>
	</g>
</g>
<g id="レイヤー_1のコピー">
</g>
</svg>
