<?xml version="1.0" encoding="utf-8"?>
<!-- Generator: Adobe Illustrator 16.2.0, SVG Export Plug-In . SVG Version: 6.00 Build 0)  -->
<!DOCTYPE svg PUBLIC "-//W3C//DTD SVG 1.1//EN" "http://www.w3.org/Graphics/SVG/1.1/DTD/svg11.dtd">
<svg version="1.1" xmlns="http://www.w3.org/2000/svg" xmlns:xlink="http://www.w3.org/1999/xlink" x="0px" y="0px" width="2050px"
	 height="700px" viewBox="0 0 2050 700" enable-background="new 0 0 2050 700" xml:space="preserve">
<g id="BG">
</g>
<g id="レイヤー_2">
</g>
<g id="レイヤー_1のコピー">
	<g>
		<g>
			<g>
				<g>
					<path fill="#FFFFFF" d="M849.566,303.021h-93.929v-32.813c0-20.663-0.902-33.603-2.681-38.821
						c-1.796-5.185-6.021-7.791-12.722-7.791c-5.795,0-9.739,2.223-11.817,6.693c-2.093,4.451-3.12,15.905-3.12,34.347v173.363
						c0,16.207,1.027,26.886,3.12,32.021c2.078,5.132,6.239,7.694,12.49,7.694c6.838,0,11.493-2.896,13.943-8.703
						c2.454-5.804,3.679-17.102,3.679-33.911v-42.832h-18.962v-54.894h109.998v193.879h-59.028l-8.691-25.88
						c-6.399,11.155-14.478,19.525-24.224,25.1c-9.751,5.585-21.254,8.378-34.49,8.378c-15.782,0-30.557-3.854-44.325-11.498
						c-13.769-7.656-24.228-17.137-31.369-28.441c-7.157-11.294-11.625-23.172-13.398-35.588
						c-1.783-12.415-2.688-31.061-2.688-55.891V300.114c0-34.501,1.853-59.575,5.589-75.197c3.7-15.602,14.378-29.929,32.019-42.935
						c17.625-12.996,40.412-19.496,68.387-19.496c27.503,0,50.336,5.594,68.493,16.925c18.135,11.313,29.966,24.716,35.472,40.261
						c5.495,15.565,8.255,38.131,8.255,67.725V303.021z"/>
					<path fill="#FFFFFF" d="M1026.843,374.983h-65.021v-13.063c0-11.138-0.634-18.189-1.902-21.154
						c-1.271-2.963-4.447-4.449-9.529-4.449c-4.127,0-7.213,1.356-9.266,4.079c-2.063,2.734-3.086,6.813-3.086,12.262
						c0,7.378,0.517,12.8,1.541,16.253c1.018,3.452,4.116,7.233,9.263,11.357c5.14,4.104,15.702,10.104,31.685,17.978
						c21.315,10.404,35.301,20.21,41.956,29.416c6.654,9.202,9.991,22.575,9.991,40.129c0,19.617-2.543,34.427-7.633,44.403
						c-5.085,9.979-13.588,17.672-25.517,23.063c-11.923,5.377-26.306,8.078-43.13,8.078c-18.646,0-34.589-2.906-47.852-8.722
						c-13.25-5.803-22.369-13.664-27.337-23.6c-4.96-9.929-7.444-24.937-7.444-45.034v-11.628h65.021v15.255
						c0,12.959,0.809,21.381,2.449,25.241c1.642,3.874,4.868,5.809,9.716,5.809c5.196,0,8.837-1.291,10.896-3.9
						c2.058-2.605,3.093-8.078,3.093-16.433c0-11.498-1.339-18.712-3.998-21.604c-2.786-2.909-17.018-11.51-42.679-25.795
						c-21.545-12.092-34.681-23.083-39.408-32.962c-4.722-9.86-7.087-21.578-7.087-35.132c0-19.269,2.549-33.447,7.631-42.591
						c5.085-9.146,13.713-16.189,25.878-21.157c12.172-4.955,26.303-7.439,42.408-7.439c15.979,0,29.572,2.018,40.769,6.078
						c11.192,4.063,19.797,9.405,25.783,16.065c5.996,6.663,9.626,12.838,10.9,18.531c1.273,5.695,1.909,14.588,1.909,26.689
						V374.983z"/>
					<path fill="#FFFFFF" d="M1054.107,170.039h93.708c29.604,0,52.014,2.329,67.27,6.896c15.237,4.643,27.548,13.96,36.934,28.018
						c9.356,14.026,14.049,36.667,14.049,67.878c0,21.107-3.314,35.812-9.925,44.152c-6.628,8.322-19.679,14.705-39.163,19.159
						c21.706,4.908,36.438,13.076,44.17,24.447c7.736,11.385,11.604,28.84,11.604,52.353v33.481c0,24.407-2.786,42.496-8.363,54.249
						c-5.577,11.765-14.47,19.805-26.656,24.108c-12.207,4.316-37.189,6.472-74.975,6.472h-108.651V170.039z M1148.037,231.843
						v80.326c4.016-0.15,7.139-0.229,9.373-0.229c9.222,0,15.091-2.267,17.625-6.802c2.526-4.537,3.792-17.512,3.792-38.93
						c0-11.309-1.044-19.233-3.128-23.761c-2.08-4.548-4.789-7.407-8.142-8.599C1164.21,232.673,1157.697,231.992,1148.037,231.843z
						 M1148.037,368.393v101.068c13.238-0.45,21.68-2.537,25.325-6.249c3.646-3.721,5.465-12.857,5.465-27.442v-33.694
						c0-15.455-1.642-24.833-4.906-28.109C1170.647,370.696,1162.018,368.831,1148.037,368.393z"/>
					<path fill="#FFFFFF" d="M1509.664,381.547c0,36.301-0.859,62.001-2.566,77.085c-1.711,15.1-7.06,28.901-16.065,41.384
						c-8.992,12.501-21.157,22.085-36.473,28.781c-15.324,6.714-33.172,10.054-53.542,10.054c-19.349,0-36.709-3.173-52.101-9.481
						c-15.396-6.327-27.784-15.813-37.151-28.445c-9.367-12.643-14.943-26.406-16.733-41.277c-1.786-14.875-2.684-40.91-2.684-78.1
						v-61.795c0-36.291,0.867-61.987,2.572-77.087c1.706-15.102,7.07-28.896,16.072-41.416
						c8.983-12.487,21.154-22.057,36.476-28.748c15.312-6.675,33.164-10.022,53.549-10.022c19.325,0,36.692,3.171,52.095,9.48
						c15.393,6.313,27.767,15.785,37.143,28.418c9.377,12.646,14.951,26.422,16.733,41.293c1.783,14.866,2.676,40.894,2.676,78.082
						V381.547z M1415.749,262.861c0-16.816-0.948-27.551-2.803-32.245c-1.854-4.685-5.686-7.016-11.488-7.016
						c-4.911,0-8.663,1.867-11.261,5.675c-2.609,3.8-3.907,14.991-3.907,33.586v168.659c0,20.974,0.86,33.92,2.563,38.83
						c1.708,4.904,5.688,7.368,11.941,7.368c6.383,0,10.482-2.831,12.266-8.486c1.792-5.646,2.689-19.105,2.689-40.39V262.861z"/>
					<path fill="#FFFFFF" d="M1747.359,381.547c0,36.301-0.861,61.997-2.581,77.085c-1.707,15.1-7.061,28.901-16.064,41.384
						c-8.993,12.501-21.15,22.085-36.476,28.781c-15.317,6.697-33.165,10.054-53.542,10.054c-19.334,0-36.709-3.173-52.107-9.481
						c-15.384-6.327-27.771-15.813-37.133-28.456c-9.383-12.632-14.955-26.396-16.733-41.267c-1.788-14.875-2.689-40.91-2.689-78.1
						v-61.795c0-36.291,0.861-61.987,2.573-77.087c1.706-15.102,7.059-28.896,16.063-41.416
						c8.992-12.487,21.146-22.057,36.475-28.748c15.318-6.678,33.169-10.022,53.552-10.022c19.329,0,36.692,3.171,52.101,9.48
						c15.389,6.313,27.781,15.785,37.144,28.418c9.372,12.646,14.942,26.422,16.732,41.29c1.784,14.869,2.687,40.896,2.687,78.085
						V381.547z M1653.421,262.861c0-16.816-0.931-27.551-2.786-32.245c-1.865-4.685-5.692-7.016-11.496-7.016
						c-4.91,0-8.67,1.867-11.256,5.691c-2.613,3.783-3.916,14.975-3.916,33.569v168.659c0,20.974,0.859,33.92,2.564,38.83
						c1.715,4.904,5.686,7.368,11.943,7.368c6.392,0,10.479-2.831,12.266-8.486c1.786-5.646,2.681-19.105,2.681-40.39V262.861z"/>
					<path fill="#FFFFFF" d="M1993.481,170.039l-53.895,163.094l59.024,198.12h-97.052l-38.04-154.828v154.828h-93.936V170.039
						h93.936v140.335l41.831-140.335H1993.481z"/>
				</g>
				<path fill="#FFFFFF" d="M926.058,218.416c0,38.629-52.378,55.037-52.378,55.037V170.039h52.378
					C926.058,170.039,926.058,207.768,926.058,218.416z"/>
			</g>
		</g>
		<g>
			<g>
				<g>
					<path fill="#FFFFFF" d="M505.67,479.331c24.037-13.339,40.328-38.901,40.328-68.372c0-42.024-33.081-76.458-74.639-78.45
						c-1.234-0.066-2.488-0.09-3.765-0.09H358.92L74.556,626.162h393.039c43.311,0,78.403-34.887,78.403-78.206
						C545.998,518.482,529.707,492.766,505.67,479.331z M425.395,551.84H250.133l47.748-49.269l127.514-0.017
						c13.619,0,24.631,11.043,24.631,24.645C450.025,540.817,439.014,551.84,425.395,551.84z M425.395,455.979H338.17l47.76-49.245
						h39.465c13.619,0,24.631,11.013,24.631,24.618C450.025,444.972,439.014,455.979,425.395,455.979z"/>
				</g>
				<path fill="#FFFFFF" d="M241.549,365.758c-1.712,0.417-4.951,0.923-9.247,0.397c-47.855-6.152-84.838-47.032-84.838-96.561
					c0-53.788,43.577-97.372,97.361-97.372c37.641,0,68.41,21.349,83.502,52.602l0,0h108.916
					C417.821,137.509,342.729,72.46,249.223,72.46c-108.942,0-197.266,88.298-197.266,197.27
					c0,102.628,78.373,186.952,178.545,196.387l98.559-101.84l110.036-113.89h-230.72v32.355l69.911,44.979L241.549,365.758z"/>
			</g>
		</g>
	</g>
	<g>
		<g>
			<g>
				<g>
					<path fill="#FFFFFF" d="M849.566,303.021h-93.929v-32.813c0-20.663-0.902-33.603-2.681-38.821
						c-1.796-5.185-6.021-7.791-12.722-7.791c-5.795,0-9.739,2.223-11.817,6.693c-2.093,4.451-3.12,15.905-3.12,34.347v173.363
						c0,16.207,1.027,26.886,3.12,32.021c2.078,5.132,6.239,7.694,12.49,7.694c6.838,0,11.493-2.896,13.943-8.703
						c2.454-5.804,3.679-17.102,3.679-33.911v-42.832h-18.962v-54.894h109.998v193.879h-59.028l-8.691-25.88
						c-6.399,11.155-14.478,19.525-24.224,25.1c-9.751,5.585-21.254,8.378-34.49,8.378c-15.782,0-30.557-3.854-44.325-11.498
						c-13.769-7.656-24.228-17.137-31.369-28.441c-7.157-11.294-11.625-23.172-13.398-35.588
						c-1.783-12.415-2.688-31.061-2.688-55.891V300.114c0-34.501,1.853-59.575,5.589-75.197c3.7-15.602,14.378-29.929,32.019-42.935
						c17.625-12.996,40.412-19.496,68.387-19.496c27.503,0,50.336,5.594,68.493,16.925c18.135,11.313,29.966,24.716,35.472,40.261
						c5.495,15.565,8.255,38.131,8.255,67.725V303.021z"/>
					<path fill="#FFFFFF" d="M1026.843,374.983h-65.021v-13.063c0-11.138-0.634-18.189-1.902-21.154
						c-1.271-2.963-4.447-4.449-9.529-4.449c-4.127,0-7.213,1.356-9.266,4.079c-2.063,2.734-3.086,6.813-3.086,12.262
						c0,7.378,0.517,12.8,1.541,16.253c1.018,3.452,4.116,7.233,9.263,11.357c5.14,4.104,15.702,10.104,31.685,17.978
						c21.315,10.404,35.301,20.21,41.956,29.416c6.654,9.202,9.991,22.575,9.991,40.129c0,19.617-2.543,34.427-7.633,44.403
						c-5.085,9.979-13.588,17.672-25.517,23.063c-11.923,5.377-26.306,8.078-43.13,8.078c-18.646,0-34.589-2.906-47.852-8.722
						c-13.25-5.803-22.369-13.664-27.337-23.6c-4.96-9.929-7.444-24.937-7.444-45.034v-11.628h65.021v15.255
						c0,12.959,0.809,21.381,2.449,25.241c1.642,3.874,4.868,5.809,9.716,5.809c5.196,0,8.837-1.291,10.896-3.9
						c2.058-2.605,3.093-8.078,3.093-16.433c0-11.498-1.339-18.712-3.998-21.604c-2.786-2.909-17.018-11.51-42.679-25.795
						c-21.545-12.092-34.681-23.083-39.408-32.962c-4.722-9.86-7.087-21.578-7.087-35.132c0-19.269,2.549-33.447,7.631-42.591
						c5.085-9.146,13.713-16.189,25.878-21.157c12.172-4.955,26.303-7.439,42.408-7.439c15.979,0,29.572,2.018,40.769,6.078
						c11.192,4.063,19.797,9.405,25.783,16.065c5.996,6.663,9.626,12.838,10.9,18.531c1.273,5.695,1.909,14.588,1.909,26.689
						V374.983z"/>
					<path fill="#FFFFFF" d="M1054.107,170.039h93.708c29.604,0,52.014,2.329,67.27,6.896c15.237,4.643,27.548,13.96,36.934,28.018
						c9.356,14.026,14.049,36.667,14.049,67.878c0,21.107-3.314,35.812-9.925,44.152c-6.628,8.322-19.679,14.705-39.163,19.159
						c21.706,4.908,36.438,13.076,44.17,24.447c7.736,11.385,11.604,28.84,11.604,52.353v33.481c0,24.407-2.786,42.496-8.363,54.249
						c-5.577,11.765-14.47,19.805-26.656,24.108c-12.207,4.316-37.189,6.472-74.975,6.472h-108.651V170.039z M1148.037,231.843
						v80.326c4.016-0.15,7.139-0.229,9.373-0.229c9.222,0,15.091-2.267,17.625-6.802c2.526-4.537,3.792-17.512,3.792-38.93
						c0-11.309-1.044-19.233-3.128-23.761c-2.08-4.548-4.789-7.407-8.142-8.599C1164.21,232.673,1157.697,231.992,1148.037,231.843z
						 M1148.037,368.393v101.068c13.238-0.45,21.68-2.537,25.325-6.249c3.646-3.721,5.465-12.857,5.465-27.442v-33.694
						c0-15.455-1.642-24.833-4.906-28.109C1170.647,370.696,1162.018,368.831,1148.037,368.393z"/>
					<path fill="#FFFFFF" d="M1509.664,381.547c0,36.301-0.859,62.001-2.566,77.085c-1.711,15.1-7.06,28.901-16.065,41.384
						c-8.992,12.501-21.157,22.085-36.473,28.781c-15.324,6.714-33.172,10.054-53.542,10.054c-19.349,0-36.709-3.173-52.101-9.481
						c-15.396-6.327-27.784-15.813-37.151-28.445c-9.367-12.643-14.943-26.406-16.733-41.277c-1.786-14.875-2.684-40.91-2.684-78.1
						v-61.795c0-36.291,0.867-61.987,2.572-77.087c1.706-15.102,7.07-28.896,16.072-41.416
						c8.983-12.487,21.154-22.057,36.476-28.748c15.312-6.675,33.164-10.022,53.549-10.022c19.325,0,36.692,3.171,52.095,9.48
						c15.393,6.313,27.767,15.785,37.143,28.418c9.377,12.646,14.951,26.422,16.733,41.293c1.783,14.866,2.676,40.894,2.676,78.082
						V381.547z M1415.749,262.861c0-16.816-0.948-27.551-2.803-32.245c-1.854-4.685-5.686-7.016-11.488-7.016
						c-4.911,0-8.663,1.867-11.261,5.675c-2.609,3.8-3.907,14.991-3.907,33.586v168.659c0,20.974,0.86,33.92,2.563,38.83
						c1.708,4.904,5.688,7.368,11.941,7.368c6.383,0,10.482-2.831,12.266-8.486c1.792-5.646,2.689-19.105,2.689-40.39V262.861z"/>
					<path fill="#FFFFFF" d="M1747.359,381.547c0,36.301-0.861,61.997-2.581,77.085c-1.707,15.1-7.061,28.901-16.064,41.384
						c-8.993,12.501-21.15,22.085-36.476,28.781c-15.317,6.697-33.165,10.054-53.542,10.054c-19.334,0-36.709-3.173-52.107-9.481
						c-15.384-6.327-27.771-15.813-37.133-28.456c-9.383-12.632-14.955-26.396-16.733-41.267c-1.788-14.875-2.689-40.91-2.689-78.1
						v-61.795c0-36.291,0.861-61.987,2.573-77.087c1.706-15.102,7.059-28.896,16.063-41.416
						c8.992-12.487,21.146-22.057,36.475-28.748c15.318-6.678,33.169-10.022,53.552-10.022c19.329,0,36.692,3.171,52.101,9.48
						c15.389,6.313,27.781,15.785,37.144,28.418c9.372,12.646,14.942,26.422,16.732,41.29c1.784,14.869,2.687,40.896,2.687,78.085
						V381.547z M1653.421,262.861c0-16.816-0.931-27.551-2.786-32.245c-1.865-4.685-5.692-7.016-11.496-7.016
						c-4.91,0-8.67,1.867-11.256,5.691c-2.613,3.783-3.916,14.975-3.916,33.569v168.659c0,20.974,0.859,33.92,2.564,38.83
						c1.715,4.904,5.686,7.368,11.943,7.368c6.392,0,10.479-2.831,12.266-8.486c1.786-5.646,2.681-19.105,2.681-40.39V262.861z"/>
					<path fill="#FFFFFF" d="M1993.481,170.039l-53.895,163.094l59.024,198.12h-97.052l-38.04-154.828v154.828h-93.936V170.039
						h93.936v140.335l41.831-140.335H1993.481z"/>
				</g>
				<path fill="#FFFFFF" d="M926.058,218.416c0,38.629-52.378,55.037-52.378,55.037V170.039h52.378
					C926.058,170.039,926.058,207.768,926.058,218.416z"/>
			</g>
		</g>
		<g>
			<g>
				<g>
					<path fill="#FFFFFF" d="M505.67,479.331c24.037-13.339,40.328-38.901,40.328-68.372c0-42.024-33.081-76.458-74.639-78.45
						c-1.234-0.066-2.488-0.09-3.765-0.09H358.92L74.556,626.162h393.039c43.311,0,78.403-34.887,78.403-78.206
						C545.998,518.482,529.707,492.766,505.67,479.331z M425.395,551.84H250.133l47.748-49.269l127.514-0.017
						c13.619,0,24.631,11.043,24.631,24.645C450.025,540.817,439.014,551.84,425.395,551.84z M425.395,455.979H338.17l47.76-49.245
						h39.465c13.619,0,24.631,11.013,24.631,24.618C450.025,444.972,439.014,455.979,425.395,455.979z"/>
				</g>
				<path fill="#FFFFFF" d="M241.549,365.758c-1.712,0.417-4.951,0.923-9.247,0.397c-47.855-6.152-84.838-47.032-84.838-96.561
					c0-53.788,43.577-97.372,97.361-97.372c37.641,0,68.41,21.349,83.502,52.602l0,0h108.916
					C417.821,137.509,342.729,72.46,249.223,72.46c-108.942,0-197.266,88.298-197.266,197.27
					c0,102.628,78.373,186.952,178.545,196.387l98.559-101.84l110.036-113.89h-230.72v32.355l69.911,44.979L241.549,365.758z"/>
			</g>
		</g>
	</g>
</g>
</svg>
